<svg width="524" height="123" viewBox="0 0 524 123" fill="none" xmlns="http://www.w3.org/2000/svg">
<g id="bottom-object">
<mask id="path-1-inside-1" fill="white">
<path d="M0 123.333C0 123.333 332.5 -154.167 524 123.333Z"/>
</mask>
<path d="M0 123.333C0 123.333 332.5 -154.167 524 123.333Z" fill="#F2F2F2"/>
<path d="M0 123.333C0.160188 123.525 0.161384 123.524 0.163844 123.522C0.166353 123.52 0.170078 123.517 0.175088 123.513C0.18511 123.505 0.200175 123.492 0.220258 123.475C0.260423 123.442 0.320655 123.392 0.400727 123.326C0.560872 123.194 0.80038 122.998 1.11744 122.74C1.75157 122.224 2.69592 121.462 3.93605 120.481C6.4163 118.517 10.0796 115.673 14.8104 112.152C24.272 105.109 38.0032 95.357 55.0793 84.521C89.2326 62.8481 136.76 36.8438 190.265 19.5087C243.77 2.17324 303.238 -6.4878 361.281 6.50698C419.317 19.5001 475.953 54.1486 523.794 123.475L524.206 123.191C476.297 53.768 419.558 19.0415 361.391 6.01906C303.231 -7.00178 243.667 1.68093 190.11 19.033C136.553 36.3854 88.9861 62.4123 54.8114 84.0988C37.7233 94.9425 23.9819 104.702 14.5119 111.751C9.77683 115.275 6.10958 118.122 3.62572 120.089C2.38379 121.072 1.4377 121.835 0.801898 122.352C0.483998 122.61 0.24367 122.808 0.0827207 122.94C0.00224584 123.007 -0.0583845 123.057 -0.0989445 123.09C-0.119224 123.107 -0.134487 123.12 -0.144704 123.129C-0.149812 123.133 -0.153683 123.136 -0.156241 123.138C-0.158847 123.14 -0.160188 123.141 0 123.333Z" fill="black" mask="url(#path-1-inside-1)"/>
</g>
</svg>
