<svg width="523" height="323" viewBox="0 0 523 323" fill="none" xmlns="http://www.w3.org/2000/svg">
<g id="top-object">
<mask id="path-1-inside-1" fill="white">
<path d="M523 -3.79923e-06C523 -3.79923e-06 191.135 726.75 1.28746e-05 -3.79923e-06Z"/>
</mask>
<path d="M523 -3.79923e-06C523 -3.79923e-06 191.135 726.75 1.28746e-05 -3.79923e-06Z" fill="#FFFEFE"/>
<path d="M523 -3.79923e-06C522.545 -0.207696 522.544 -0.205056 522.542 -0.19966C522.539 -0.194176 522.535 -0.186025 522.53 -0.175089C522.52 -0.153219 522.505 -0.12039 522.485 -0.0767322C522.445 0.0105829 522.385 0.141212 522.305 0.314115C522.145 0.659922 521.906 1.17483 521.589 1.85051C520.956 3.20188 520.014 5.19635 518.776 7.76741C516.3 12.9095 512.644 20.3579 507.922 29.5802C498.478 48.0252 484.773 73.5648 467.731 101.942C433.64 158.706 386.217 226.782 332.852 272.15C279.478 317.525 220.317 340.068 162.607 306.167C133.716 289.195 105.129 258.05 77.7871 208.415C50.447 158.783 24.3692 90.6929 0.483569 -0.127179L-0.483543 0.127171C23.4145 90.9946 49.5181 159.17 76.9112 208.898C104.303 258.624 133 289.934 162.1 307.029C220.372 341.26 280.015 318.381 333.499 272.912C386.992 227.436 434.482 159.247 468.588 102.457C485.645 74.0563 499.36 48.4963 508.812 30.036C513.538 20.8057 517.198 13.35 519.677 8.20121C520.916 5.62682 521.86 3.62914 522.495 2.27471C522.812 1.5975 523.052 1.08109 523.213 0.733818C523.293 0.56018 523.353 0.428824 523.394 0.340789C523.414 0.296772 523.429 0.263585 523.439 0.241358C523.445 0.230245 523.448 0.221827 523.451 0.216254C523.453 0.210593 523.455 0.207688 523 -3.79923e-06Z" fill="black" mask="url(#path-1-inside-1)"/>
</g>
</svg>
